<svg width="862" xmlns="http://www.w3.org/2000/svg" height="862" id="screenshot-d0d0e09e-35ba-806c-8006-bffc5d17d119" viewBox="0 0 862 862" xmlns:xlink="http://www.w3.org/1999/xlink" fill="none" version="1.1"><g id="shape-d0d0e09e-35ba-806c-8006-bffc5d17d119" rx="0" ry="0"><g id="shape-d0d0e09e-35ba-806c-8006-bffc5d17d11a" rx="0" ry="0"><g clip-path="url(#render-2-d0d0e09e-35ba-806c-8006-bffc5d17d11b-clip)"><g mask="url(#render-2-d0d0e09e-35ba-806c-8006-bffc5d17d11b-mask)"><defs><filter id="render-2-d0d0e09e-35ba-806c-8006-bffc5d17d11b-filter"><feFlood flood-color="white" result="FloodResult"/><feComposite in="FloodResult" in2="SourceGraphic" operator="in" result="comp"/></filter><clipPath id="render-2-d0d0e09e-35ba-806c-8006-bffc5d17d11b-clip" class="mask-clip-path"><polyline points="0,0 862,0 862,862 0,862"/></clipPath><mask width="862" maskUnits="userSpaceOnUse" height="862" class="mask-shape" x="0" id="render-2-d0d0e09e-35ba-806c-8006-bffc5d17d11b-mask" data-old-y="0" data-old-width="862" data-old-x="0" y="0" data-old-height="862"><g filter="url(#render-2-d0d0e09e-35ba-806c-8006-bffc5d17d11b-filter)"><g id="shape-d0d0e09e-35ba-806c-8006-bffc5d17d11b"><g class="fills" id="fills-d0d0e09e-35ba-806c-8006-bffc5d17d11b"><rect rx="200" ry="200" x="0" y="0" transform="matrix(1.000000, 0.000000, 0.000000, 1.000000, 0.000000, 0.000000)" width="862" height="862" style="fill: rgb(255, 255, 255); fill-opacity: 1;"/></g></g></g></mask></defs><g id="shape-d0d0e09e-35ba-806c-8006-bffcdaf385c0"><g class="fills" id="fills-d0d0e09e-35ba-806c-8006-bffcdaf385c0"><rect rx="200" ry="200" x="0" y="0" transform="matrix(1.000000, 0.000000, 0.000000, 1.000000, 0.000000, 0.000000)" width="862" height="862" style="fill: rgb(250, 191, 90); fill-opacity: 1;"/></g><g id="strokes-19299bf3-c792-806b-8007-438c02ad714c-d0d0e09e-35ba-806c-8006-bffcdaf385c0" class="strokes"><g class="inner-stroke-shape" transform="matrix(1.000000, 0.000000, 0.000000, 1.000000, 0.000000, 0.000000)"><defs><clipPath id="inner-stroke-render-4-d0d0e09e-35ba-806c-8006-bffcdaf385c0-0"><use href="#stroke-shape-render-4-d0d0e09e-35ba-806c-8006-bffcdaf385c0-0"/></clipPath><rect rx="200" ry="200" x="0" y="0" width="862" height="862" id="stroke-shape-render-4-d0d0e09e-35ba-806c-8006-bffcdaf385c0-0" style="fill: none; stroke-width: 8; stroke: rgb(36, 38, 48); stroke-opacity: 1;"/></defs><use href="#stroke-shape-render-4-d0d0e09e-35ba-806c-8006-bffcdaf385c0-0" clip-path="url('#inner-stroke-render-4-d0d0e09e-35ba-806c-8006-bffcdaf385c0-0')"/></g></g></g><g id="shape-d0d0e09e-35ba-806c-8006-bffc5d17d11d" rx="0" ry="0"><g id="shape-d0d0e09e-35ba-806c-8006-bffc5d17d120"><g class="fills" id="fills-d0d0e09e-35ba-806c-8006-bffc5d17d120"><rect rx="0" ry="0" x="574.6666666666679" y="2.3551912568304942" transform="matrix(1.000000, 0.000000, 0.000000, 1.000000, 0.000000, 0.000000)" width="287.3333333333303" height="859.6448087431695" style="fill: rgb(250, 191, 90);"/></g></g><g id="shape-d0d0e09e-35ba-806c-8006-bffc5d17d121"><g class="fills" id="fills-d0d0e09e-35ba-806c-8006-bffc5d17d121"><rect rx="0" ry="0" x="287.33333333333394" y="0" transform="matrix(1.000000, 0.000000, 0.000000, 1.000000, 0.000000, 0.000000)" width="287.33333333333394" height="282.62295081967204" style="fill: rgb(250, 191, 90);"/></g></g><g id="shape-d0d0e09e-35ba-806c-8006-bffc5d17d122"><g class="fills" id="fills-d0d0e09e-35ba-806c-8006-bffc5d17d122"><rect rx="0" ry="0" x="0" y="2.3551912568304942" transform="matrix(1.000000, 0.000000, 0.000000, 1.000000, 0.000000, 0.000000)" width="287.33333333333394" height="859.6448087431695" style="fill: rgb(250, 191, 90);"/></g></g></g><g id="shape-d0d0e09e-35ba-806c-8006-bffc5d17d11e" rx="0" ry="0"><g id="shape-d0d0e09e-35ba-806c-8006-bffc5d17d123"><g class="fills" id="fills-d0d0e09e-35ba-806c-8006-bffc5d17d123"><rect rx="0" ry="0" x="287.33333333333394" y="602.9289617486338" transform="matrix(1.000000, 0.000000, 0.000000, 1.000000, 0.000000, 0.000000)" width="287.33333333333576" height="259.0710382513662" style="fill: rgb(250, 191, 90);"/></g></g></g><g id="shape-d0d0e09e-35ba-806c-8006-bffc5d17d11f"><g class="fills" id="fills-d0d0e09e-35ba-806c-8006-bffc5d17d11f"><path d="M303.697265625,862L175.4619140625,862L175.4619140625,173.5953369140625L206.23828125,173.5953369140625L257.06591796875,233.639404296875C268.56884765625,222.7784423828125,281.1591796875,212.538330078125,294.83740234375,202.9189453125C308.51611328125,193.2994384765625,322.66064453125,185.07666015625,337.27197265625,178.2498779296875C352.19384765625,171.113037109375,367.58203125,165.5277099609375,383.4365234375,161.49365234375C399.291015625,157.459716796875,415.30126953125,155.442626953125,431.466796875,155.442626953125C466.5947265625,155.442626953125,499.54931640625,161.8038330078125,530.32470703125,174.5263671875C561.41162109375,186.9384765625,588.45703125,204.625732421875,611.4619140625,227.5875244140625C634.77734375,250.5496826171875,653.12109375,278.323486328125,666.48681640625,310.9039306640625C679.85546875,343.1761474609375,686.5380859375,379.014892578125,686.5380859375,418.4224853515625C686.5380859375,459.383544921875,679.85546875,496.308349609375,666.48681640625,529.2020263671875C653.12109375,561.7823486328125,634.77734375,589.55615234375,611.4619140625,612.518310546875C588.45703125,635.1697998046875,561.41162109375,652.54736328125,530.32470703125,664.6484375C499.54931640625,676.7496337890625,466.5947265625,682.801513671875,431.466796875,682.801513671875C420.27490234375,682.801513671875,409.08349609375,681.5587158203125,397.892578125,679.0758056640625C387.01171875,676.5955810546875,376.130859375,673.3372802734375,365.25048828125,669.3035888671875C354.6806640625,664.9591064453125,344.11083984375,660.1474609375,333.541015625,654.87353515625C323.2822265625,649.59716796875,313.33447265625,644.169189453125,303.697265625,638.58203125L303.697265625,862L303.697265625,862M558.77001953125,418.4224853515625C558.77001953125,397.3218994140625,555.35107421875,378.3934326171875,548.51123046875,361.63720703125C541.982421875,344.8809814453125,532.966796875,330.764404296875,521.4658203125,319.281982421875C509.9619140625,307.4915771484375,496.439453125,298.4920654296875,480.89453125,292.2861328125C465.3525390625,286.0802001953125,448.87646484375,282.9759521484375,431.466796875,282.9759521484375C414.0576171875,282.9759521484375,397.58154296875,286.0802001953125,382.03759765625,292.2861328125C366.8046875,298.4920654296875,353.4375,307.4915771484375,341.9345703125,319.281982421875C330.4326171875,330.764404296875,321.26171875,344.8809814453125,314.42236328125,361.63720703125C307.89404296875,378.3934326171875,304.6298828125,397.3218994140625,304.6298828125,418.4224853515625C304.6298828125,438.5936279296875,307.89404296875,457.057373046875,314.42236328125,473.8134765625C321.26171875,490.5697021484375,330.4326171875,504.843017578125,341.9345703125,516.633544921875C353.4375,528.426513671875,366.8046875,537.580078125,382.03759765625,544.0966796875C397.58154296875,550.61328125,414.0576171875,553.87158203125,431.466796875,553.87158203125C448.87646484375,553.87158203125,465.3525390625,550.61328125,480.89453125,544.0966796875C496.439453125,537.580078125,509.9619140625,528.426513671875,521.4658203125,516.633544921875C532.966796875,504.843017578125,541.982421875,490.5697021484375,548.51123046875,473.8134765625C555.35107421875,457.057373046875,558.77001953125,438.5936279296875,558.77001953125,418.4224853515625L558.77001953125,418.4224853515625" style="fill: rgb(36, 38, 48);"/></g></g><g id="shape-d0d0e09e-35ba-806c-8006-bffc5d17d11c"><g class="fills" id="fills-d0d0e09e-35ba-806c-8006-bffc5d17d11c"><rect rx="200" ry="200" x="0" y="0" transform="matrix(1.000000, 0.000000, 0.000000, 1.000000, 0.000000, 0.000000)" width="862" height="862"/></g><g id="strokes-19299bf3-c792-806b-8007-438c02b06b08-d0d0e09e-35ba-806c-8006-bffc5d17d11c" class="strokes"><g class="stroke-shape"><rect rx="200" ry="200" x="0" y="0" transform="matrix(1.000000, 0.000000, 0.000000, 1.000000, 0.000000, 0.000000)" width="862" height="862" style="fill: none; stroke-width: 46; stroke: rgb(36, 38, 48); stroke-opacity: 1;"/></g></g></g></g></g></g></g></svg>