<svg width="1024" xmlns="http://www.w3.org/2000/svg" height="1024" id="screenshot-a62b0afb-ae72-8078-8008-41ab9ba5bf9f" viewBox="0 0 1024 1024" xmlns:xlink="http://www.w3.org/1999/xlink" fill="none" version="1.1"><g id="shape-a62b0afb-ae72-8078-8008-41ab9ba5bf9f"><defs><clipPath id="frame-clip-a62b0afb-ae72-8078-8008-41ab9ba5bf9f-render-1" class="frame-clip frame-clip-def"><rect rx="0" ry="0" x="0" y="0" width="1024" height="1024" transform="matrix(1.000000, 0.000000, 0.000000, 1.000000, 0.000000, 0.000000)"/></clipPath></defs><g class="frame-container-wrapper"><g class="frame-container-blur"><g class="frame-container-shadows"><g clip-path="url(#frame-clip-a62b0afb-ae72-8078-8008-41ab9ba5bf9f-render-1)" fill="none"><g class="fills" id="fills-a62b0afb-ae72-8078-8008-41ab9ba5bf9f"><rect rx="0" ry="0" x="0" y="0" width="1024" height="1024" transform="matrix(1.000000, 0.000000, 0.000000, 1.000000, 0.000000, 0.000000)" class="frame-background"/></g><g class="frame-children"><g id="shape-a62b0afb-ae72-8078-8008-41aba9fbff6b" rx="0" ry="0"><g id="shape-a62b0afb-ae72-8078-8008-41aba9fbff6c"><g class="fills" id="fills-a62b0afb-ae72-8078-8008-41aba9fbff6c"><rect rx="200" ry="200" x="77" y="77" transform="matrix(1.000000, 0.000000, 0.000000, 1.000000, 0.000000, 0.000000)" width="870" height="870" style="fill: rgb(250, 191, 90); fill-opacity: 1;"/></g></g><g id="shape-a62b0afb-ae72-8078-8008-41aba9fbff6d"><g class="fills" id="fills-a62b0afb-ae72-8078-8008-41aba9fbff6d"><path d="M449.5263671875,362.939453125L449.5263671875,254.95361328125C449.5263671875,254.95361328125,449.5263671875,183.28125,512.853515625,183.28125C580.05859375,183.28125,580.05859375,254.95361328125,580.05859375,254.95361328125L580.05859375,296.02490234375L580.05859375,296.02490234375L550.763671875,313.9306640625L550.763671875,340.51220703125L624,340.51220703125C624,340.51220703125,622.3408203125,287.64599609375,624,254.95361328125C624,254.95361328125,624,135.5,513.71484375,135.5C513.71484375,135.5,403,135.5,403,254.95361328125C403,364.0458984375,403,469.50048828125,403,469.50048828125L449.5263671875,469.50048828125L449.5263671875,362.939453125" style="fill: rgb(50, 50, 50); fill-opacity: 1;"/></g></g><g id="shape-a62b0afb-ae72-8078-8008-41aba9fbff6e" rx="0" ry="0"><g id="shape-a62b0afb-ae72-8078-8008-41aba9fbff70"><g class="fills" id="fills-a62b0afb-ae72-8078-8008-41aba9fbff70"><rect rx="50" ry="50" x="320" y="425.5" transform="matrix(1.000000, 0.000000, 0.000000, 1.000000, 0.000000, 0.000000)" width="384" height="384" style="fill: rgb(250, 191, 90); fill-opacity: 1;"/></g><g id="strokes-b7bdc92d-64ba-8079-8008-41abe0cd17f7-a62b0afb-ae72-8078-8008-41aba9fbff70" class="strokes"><g class="outer-stroke-shape"><defs><mask id="outer-stroke-render-6-a62b0afb-ae72-8078-8008-41aba9fbff70-0" x="252.11774900609146" y="357.61774900609146" width="519.7645019878171" height="519.7645019878171" maskUnits="userSpaceOnUse"><use href="#stroke-shape-render-6-a62b0afb-ae72-8078-8008-41aba9fbff70-0" style="fill: none; stroke: white; stroke-width: 96;"/><use href="#stroke-shape-render-6-a62b0afb-ae72-8078-8008-41aba9fbff70-0" style="fill: black; stroke: none;"/></mask><rect rx="50" ry="50" x="320" y="425.5" transform="matrix(1.000000, 0.000000, 0.000000, 1.000000, 0.000000, 0.000000)" width="384" height="384" id="stroke-shape-render-6-a62b0afb-ae72-8078-8008-41aba9fbff70-0"/></defs><use href="#stroke-shape-render-6-a62b0afb-ae72-8078-8008-41aba9fbff70-0" mask="url(#outer-stroke-render-6-a62b0afb-ae72-8078-8008-41aba9fbff70-0)" style="fill: none; stroke-width: 96; stroke: rgb(50, 50, 50); stroke-opacity: 1;"/><use href="#stroke-shape-render-6-a62b0afb-ae72-8078-8008-41aba9fbff70-0" style="fill: none; stroke-width: 48; stroke: none; stroke-opacity: 1;"/></g></g></g></g><g id="shape-a62b0afb-ae72-8078-8008-41aba9fbff6f"><g class="fills" id="fills-a62b0afb-ae72-8078-8008-41aba9fbff6f"><path d="M479.6181640625,708.5L447,708.5L447,531.17626953125L454.828125,531.17626953125L467.755859375,546.642578125C470.68359375,543.84521484375,473.88671875,541.20751953125,477.365234375,538.72900390625C480.84375,536.25146484375,484.4423828125,534.1337890625,488.1591796875,532.375C491.9541015625,530.537109375,495.8681640625,529.09814453125,499.9013671875,528.05908203125C503.935546875,527.01953125,508.0068359375,526.5,512.1181640625,526.5C521.0546875,526.5,529.435546875,528.138671875,537.2646484375,531.416015625C545.1728515625,534.61328125,552.05078125,539.1689453125,557.9033203125,545.083984375C563.833984375,550.99853515625,568.4990234375,558.15283203125,571.8994140625,566.54541015625C575.30078125,574.85791015625,577,584.08935546875,577,594.23974609375C577,604.79150390625,575.30078125,614.302734375,571.8994140625,622.77587890625C568.4990234375,631.16748046875,563.833984375,638.322265625,557.9033203125,644.23681640625C552.05078125,650.07177734375,545.1728515625,654.5478515625,537.2646484375,657.6650390625C529.435546875,660.7822265625,521.0546875,662.3408203125,512.1181640625,662.3408203125C509.2724609375,662.3408203125,506.42578125,662.0205078125,503.578125,661.380859375C500.8115234375,660.74267578125,498.0439453125,659.90283203125,495.2763671875,658.86376953125C492.587890625,657.7451171875,489.8984375,656.50537109375,487.2099609375,655.14697265625C484.6005859375,653.7880859375,482.0703125,652.38916015625,479.6181640625,650.95068359375L479.6181640625,708.5L479.6181640625,708.5M544.5,594.23974609375C544.5,588.8046875,543.630859375,583.9296875,541.890625,579.61328125C540.23046875,575.296875,537.9365234375,571.66064453125,535.0126953125,568.703125C532.0849609375,565.666015625,528.646484375,563.34765625,524.6923828125,561.7490234375C520.7373046875,560.150390625,516.5478515625,559.3505859375,512.1181640625,559.3505859375C507.69140625,559.3505859375,503.4990234375,560.150390625,499.5458984375,561.7490234375C495.671875,563.34765625,492.26953125,565.666015625,489.345703125,568.703125C486.419921875,571.66064453125,484.0859375,575.296875,482.3466796875,579.61328125C480.685546875,583.9296875,479.857421875,588.8046875,479.857421875,594.23974609375C479.857421875,599.43603515625,480.685546875,604.19189453125,482.3466796875,608.50830078125C484.0859375,612.82470703125,486.419921875,616.5009765625,489.345703125,619.53857421875C492.26953125,622.576171875,495.671875,624.93359375,499.5458984375,626.6123046875C503.4990234375,628.291015625,507.69140625,629.13037109375,512.1181640625,629.13037109375C516.5478515625,629.13037109375,520.7373046875,628.291015625,524.6923828125,626.6123046875C528.646484375,624.93359375,532.0849609375,622.576171875,535.0126953125,619.53857421875C537.9365234375,616.5009765625,540.23046875,612.82470703125,541.890625,608.50830078125C543.630859375,604.19189453125,544.5,599.43603515625,544.5,594.23974609375L544.5,594.23974609375" style="fill: rgb(50, 50, 50); fill-opacity: 1;"/></g></g></g></g></g></g></g></g></g></svg>