<svg width="913" xmlns="http://www.w3.org/2000/svg" height="348" id="screenshot-b093fb9d-c39a-8078-8001-f2a81075f8d0" viewBox="0 0 913 348" xmlns:xlink="http://www.w3.org/1999/xlink" fill="none" version="1.1"><g id="shape-b093fb9d-c39a-8078-8001-f2a81075f8d0" width="913" height="348" rx="0" ry="0" style="fill: rgb(0, 0, 0);"><g id="shape-b093fb9d-c39a-8078-8001-f2a81075f8d2" style="display: none;"><g class="fills" id="fills-b093fb9d-c39a-8078-8001-f2a81075f8d2"><rect width="913" height="348" x="0" transform="matrix(1.000000, 0.000000, 0.000000, 1.000000, 0.000000, 0.000000)" style="fill: none;" ry="0" fill="none" rx="0" y="0"/></g></g><g id="shape-b093fb9d-c39a-8078-8001-f2a81076e45b"><g class="fills" id="fills-b093fb9d-c39a-8078-8001-f2a81076e45b"><path d="M49.026611328125,348L0,348L0,84.3258056640625L11.76641845703125,84.3258056640625L31.19873046875,107.32400512695312C35.5963134765625,103.16400146484375,40.4097900390625,99.24179077148438,45.6392822265625,95.55740356445312C50.8687744140625,91.87289428710938,56.276611328125,88.723388671875,61.8626708984375,86.10861206054688C67.567626953125,83.375,73.4508056640625,81.23568725585938,79.51220703125,79.69061279296875C85.57373046875,78.1455078125,91.694580078125,77.37289428710938,97.8748779296875,77.37289428710938C111.30499267578125,77.37289428710938,123.90399169921875,79.80938720703125,135.66998291015625,84.68240356445312C147.55499267578125,89.43649291992188,157.89501953125,96.21109008789062,166.69000244140625,105.00601196289062C175.60400390625,113.80099487304688,182.61700439453125,124.43899536132812,187.72698974609375,136.91799926757812C192.8380126953125,149.27899169921875,195.39300537109375,163.00601196289062,195.39300537109375,178.10000610351562C195.39300537109375,193.78900146484375,192.8380126953125,207.9320068359375,187.72698974609375,220.531005859375C182.61700439453125,233.00999450683594,175.60400390625,243.6479949951172,166.69000244140625,252.4429931640625C157.89501953125,261.1190185546875,147.55499267578125,267.7749938964844,135.66998291015625,272.4100036621094C123.90399169921875,277.04498291015625,111.30499267578125,279.3630065917969,97.8748779296875,279.3630065917969C93.59619140625,279.3630065917969,89.3175048828125,278.8869934082031,85.03887939453125,277.9360046386719C80.8790283203125,276.9859924316406,76.71917724609375,275.7380065917969,72.55938720703125,274.1929931640625C68.51837158203125,272.52899169921875,64.4774169921875,270.6860046386719,60.4364013671875,268.666015625C56.5142822265625,266.64501953125,52.71099853515625,264.56597900390625,49.026611328125,262.4259948730469L49.026611328125,348ZM146.54498291015625,178.10000610351562C146.54498291015625,170.01800537109375,145.23797607421875,162.76800537109375,142.62298583984375,156.35000610351562C140.12701416015625,149.9320068359375,136.67999267578125,144.52499389648438,132.28302001953125,140.12701416015625C127.885009765625,135.61099243164062,122.71502685546875,132.16400146484375,116.77197265625,129.7869873046875C110.83001708984375,127.41000366210938,104.531005859375,126.22100830078125,97.8748779296875,126.22100830078125C91.21917724609375,126.22100830078125,84.91998291015625,127.41000366210938,78.9774169921875,129.7869873046875C73.15362548828125,132.16400146484375,68.04302978515625,135.61099243164062,63.6453857421875,140.12701416015625C59.2479248046875,144.52499389648438,55.7418212890625,149.9320068359375,53.12701416015625,156.35000610351562C50.631103515625,162.76800537109375,49.3831787109375,170.01800537109375,49.3831787109375,178.10000610351562C49.3831787109375,185.82598876953125,50.631103515625,192.89801025390625,53.12701416015625,199.3159942626953C55.7418212890625,205.73399353027344,59.2479248046875,211.2010040283203,63.6453857421875,215.7169952392578C68.04302978515625,220.23399353027344,73.15362548828125,223.74000549316406,78.9774169921875,226.23599243164062C84.91998291015625,228.73199462890625,91.21917724609375,229.97999572753906,97.8748779296875,229.97999572753906C104.531005859375,229.97999572753906,110.83001708984375,228.73199462890625,116.77197265625,226.23599243164062C122.71502685546875,223.74000549316406,127.885009765625,220.23399353027344,132.28302001953125,215.7169952392578C136.67999267578125,211.2010040283203,140.12701416015625,205.73399353027344,142.62298583984375,199.3159942626953C145.23797607421875,192.89801025390625,146.54498291015625,185.82598876953125,146.54498291015625,178.10000610351562Z" style="fill: rgb(36, 38, 48);"/></g></g><g id="shape-b093fb9d-c39a-8078-8001-f2a81077c21d"><g class="fills" id="fills-b093fb9d-c39a-8078-8001-f2a81077c21d"><path d="M417.9630126953125,178.10000610351562C417.9630126953125,192.36300659179688,415.4079895019531,205.6739959716797,410.2969970703125,218.03500366210938C405.18701171875,230.27699279785156,398.2340087890625,240.91400146484375,389.4389953613281,249.94700622558594C380.6440124511719,258.8609924316406,370.3039855957031,265.9320068359375,358.41802978515625,271.1619873046875C346.6519775390625,276.27301025390625,333.9940185546875,278.8280029296875,320.44500732421875,278.8280029296875C307.0150146484375,278.8280029296875,294.35699462890625,276.27301025390625,282.47198486328125,271.1619873046875C270.70501708984375,265.9320068359375,260.364990234375,258.8609924316406,251.45098876953125,249.94700622558594C242.656005859375,240.91400146484375,235.7030029296875,230.27699279785156,230.593017578125,218.03500366210938C225.48199462890625,205.6739959716797,222.927001953125,192.36300659179688,222.927001953125,178.10000610351562C222.927001953125,163.60000610351562,225.48199462890625,150.17001342773438,230.593017578125,137.80899047851562C235.7030029296875,125.44900512695312,242.656005859375,114.81100463867188,251.45098876953125,105.89801025390625C260.364990234375,96.86480712890625,270.70501708984375,89.79299926757812,282.47198486328125,84.68240356445312C294.35699462890625,79.57168579101562,307.0150146484375,77.01638793945312,320.44500732421875,77.01638793945312C333.9940185546875,77.01638793945312,346.6519775390625,79.45291137695312,358.41802978515625,84.3258056640625C370.3039855957031,89.07989501953125,380.6440124511719,95.91390991210938,389.4389953613281,104.8280029296875C398.2340087890625,113.62298583984375,405.18701171875,124.260009765625,410.2969970703125,136.739990234375C415.4079895019531,149.10000610351562,417.9630126953125,162.88699340820312,417.9630126953125,178.10000610351562ZM368.93701171875,178.10000610351562C368.93701171875,170.25601196289062,367.6290283203125,163.18399047851562,365.0150146484375,156.885009765625C362.51898193359375,150.46701049804688,359.072021484375,145,354.67401123046875,140.4840087890625C350.2769775390625,135.84799194335938,345.10699462890625,132.34201049804688,339.16400146484375,129.96499633789062C333.34002685546875,127.468994140625,327.10101318359375,126.22100830078125,320.44500732421875,126.22100830078125C313.78900146484375,126.22100830078125,307.489990234375,127.468994140625,301.5469970703125,129.96499633789062C295.7239990234375,132.34201049804688,290.61297607421875,135.84799194335938,286.21600341796875,140.4840087890625C281.93701171875,145,278.54998779296875,150.46701049804688,276.05401611328125,156.885009765625C273.5579833984375,163.18399047851562,272.30999755859375,170.25601196289062,272.30999755859375,178.10000610351562C272.30999755859375,185.468994140625,273.5579833984375,192.30300903320312,276.05401611328125,198.6020050048828C278.54998779296875,204.90199279785156,281.93701171875,210.36900329589844,286.21600341796875,215.00399780273438C290.61297607421875,219.63900756835938,295.7239990234375,223.32400512695312,301.5469970703125,226.0570068359375C307.489990234375,228.6719970703125,313.78900146484375,229.97999572753906,320.44500732421875,229.97999572753906C327.10101318359375,229.97999572753906,333.34002685546875,228.73199462890625,339.16400146484375,226.23599243164062C345.10699462890625,223.74000549316406,350.2769775390625,220.23399353027344,354.67401123046875,215.7169952392578C359.072021484375,211.2010040283203,362.51898193359375,205.73399353027344,365.0150146484375,199.3159942626953C367.6290283203125,192.89801025390625,368.93701171875,185.82598876953125,368.93701171875,178.10000610351562Z" style="fill: rgb(36, 38, 48);"/></g></g><g id="shape-b093fb9d-c39a-8078-8001-f2a8107836b7"><g class="fills" id="fills-b093fb9d-c39a-8078-8001-f2a8107836b7"><path d="M504.8630065917969,275.2619934082031L455.8370056152344,275.2619934082031L455.8370056152344,8.37908935546875L504.8630065917969,8.37908935546875L504.8630065917969,275.2619934082031Z" style="fill: rgb(36, 38, 48);"/></g></g><g id="shape-b093fb9d-c39a-8078-8001-f2a8107846a9"><g class="fills" id="fills-b093fb9d-c39a-8078-8001-f2a8107846a9"><path d="M602.10400390625,275.2619934082031L553.0770263671875,275.2619934082031L553.0770263671875,8.37908935546875L602.10400390625,8.37908935546875L602.10400390625,275.2619934082031Z" style="fill: rgb(36, 38, 48);"/></g></g><g id="shape-b093fb9d-c39a-8078-8001-f2a81078c886"><g class="fills" id="fills-b093fb9d-c39a-8078-8001-f2a81078c886"><path d="M707.7230224609375,32.446685791015625C707.7230224609375,36.963104248046875,706.83203125,41.182403564453125,705.0490112304688,45.1044921875C703.385009765625,49.026611328125,701.0670166015625,52.473388671875,698.0960083007812,55.4447021484375C695.125,58.297088623046875,691.6190185546875,60.61480712890625,687.5780029296875,62.397491455078125C683.655029296875,64.06149291992188,679.43603515625,64.89340209960938,674.9199829101562,64.89340209960938C670.4030151367188,64.89340209960938,666.125,64.06149291992188,662.083984375,62.397491455078125C658.1619873046875,60.61480712890625,654.7149658203125,58.297088623046875,651.7440185546875,55.4447021484375C648.8909912109375,52.473388671875,646.572998046875,49.026611328125,644.791015625,45.1044921875C643.1270141601562,41.182403564453125,642.2949829101562,36.963104248046875,642.2949829101562,32.446685791015625C642.2949829101562,28.0491943359375,643.1270141601562,23.889312744140625,644.791015625,19.967193603515625C646.572998046875,15.92620849609375,648.8909912109375,12.4794921875,651.7440185546875,9.627044677734375C654.7149658203125,6.655731201171875,658.1619873046875,4.338104248046875,662.083984375,2.6741943359375C666.125,0.891387939453125,670.4030151367188,0,674.9199829101562,0C679.43603515625,0,683.655029296875,0.891387939453125,687.5780029296875,2.6741943359375C691.6190185546875,4.338104248046875,695.125,6.655731201171875,698.0960083007812,9.627044677734375C701.0670166015625,12.4794921875,703.385009765625,15.92620849609375,705.0490112304688,19.967193603515625C706.83203125,23.889312744140625,707.7230224609375,28.0491943359375,707.7230224609375,32.446685791015625ZM699.343994140625,275.2619934082031L650.3170166015625,275.2619934082031L650.3170166015625,84.3258056640625L699.343994140625,84.3258056640625L699.343994140625,275.2619934082031Z" style="fill: rgb(36, 38, 48);"/></g></g><g id="shape-b093fb9d-c39a-8078-8001-f2a810798515"><g class="fills" id="fills-b093fb9d-c39a-8078-8001-f2a810798515"><path d="M852.385009765625,275.2619934082031L741.1390380859375,275.2619934082031L741.1390380859375,226.77000427246094L852.385009765625,226.77000427246094C855.7130126953125,226.77000427246094,858.5659790039062,225.58200073242188,860.9429931640625,223.2050018310547C863.3200073242188,220.8280029296875,864.5079956054688,217.97500610351562,864.5079956054688,214.6479949951172C864.5079956054688,211.2010040283203,863.3200073242188,208.9429931640625,860.9429931640625,207.8730010986328C858.5659790039062,206.80299377441406,855.7130126953125,206.26800537109375,852.385009765625,206.26800537109375L801.7540283203125,206.26800537109375C793.3159790039062,206.26800537109375,785.4119873046875,204.66400146484375,778.04296875,201.4550018310547C770.6740112304688,198.24600219726562,764.2559814453125,193.90798950195312,758.7890014648438,188.44100952148438C753.322021484375,182.85501098632812,748.9840087890625,176.37701416015625,745.7750244140625,169.00799560546875C742.6849975585938,161.63900756835938,741.1390380859375,153.73599243164062,741.1390380859375,145.2969970703125C741.1390380859375,136.8590087890625,742.6849975585938,128.95498657226562,745.7750244140625,121.58599853515625C748.9840087890625,114.21701049804688,753.322021484375,107.79901123046875,758.7890014648438,102.33200073242188C764.2559814453125,96.86480712890625,770.6740112304688,92.58609008789062,778.04296875,89.49591064453125C785.4119873046875,86.28689575195312,793.3159790039062,84.68240356445312,801.7540283203125,84.68240356445312L900.3419799804688,84.68240356445312L900.3419799804688,133.17401123046875L801.7540283203125,133.17401123046875C798.426025390625,133.17401123046875,795.573974609375,134.36300659179688,793.197021484375,136.739990234375C790.8200073242188,139.11700439453125,789.6309814453125,141.968994140625,789.6309814453125,145.2969970703125C789.6309814453125,148.74398803710938,790.8200073242188,151.71499633789062,793.197021484375,154.21099853515625C795.573974609375,156.5880126953125,798.426025390625,157.77700805664062,801.7540283203125,157.77700805664062L852.385009765625,157.77700805664062C860.7050170898438,157.77700805664062,868.5490112304688,159.2030029296875,875.9180297851562,162.05499267578125C883.2869873046875,164.78900146484375,889.7050170898438,168.65200805664062,895.1719970703125,173.64300537109375C900.6389770507812,178.635009765625,904.9769897460938,184.63699340820312,908.1859741210938,191.64999389648438C911.39599609375,198.66200256347656,913,206.3280029296875,913,214.6479949951172C913,223.08599853515625,911.39599609375,230.99000549316406,908.1859741210938,238.35899353027344C904.9769897460938,245.60899353027344,900.6389770507812,252.02699279785156,895.1719970703125,257.6130065917969C889.7050170898438,263.08001708984375,883.2869873046875,267.4179992675781,875.9180297851562,270.62701416015625C868.5490112304688,273.71697998046875,860.7050170898438,275.2619934082031,852.385009765625,275.2619934082031Z" style="fill: rgb(36, 38, 48);"/></g></g></g></svg>