<svg width="913" xmlns="http://www.w3.org/2000/svg" height="348" id="screenshot-5e94b32d-d883-80ed-8007-438bbc65bec6" viewBox="0 0 913 348" xmlns:xlink="http://www.w3.org/1999/xlink" fill="none" version="1.1"><g id="shape-5e94b32d-d883-80ed-8007-438bbc65bec6" width="913" height="348" rx="0" ry="0" style="fill: rgb(0, 0, 0);"><g id="shape-5e94b32d-d883-80ed-8007-438bbc65bec7" style="display: none;"><g class="fills" id="fills-5e94b32d-d883-80ed-8007-438bbc65bec7"><rect width="913" height="348" x="0" transform="matrix(1.000000, 0.000000, 0.000000, 1.000000, 0.000000, 0.000000)" style="fill: none;" ry="0" fill="none" rx="0" y="0"/></g></g><g id="shape-5e94b32d-d883-80ed-8007-438bbc65bec8"><g class="fills" id="fills-5e94b32d-d883-80ed-8007-438bbc65bec8"><path d="M49.02685546875,348L0,348L0,84.325927734375L11.7666015625,84.325927734375L31.19873046875,107.323974609375C35.59619140625,103.1640625,40.40966796875,99.241943359375,45.63916015625,95.557373046875C50.86865234375,91.873046875,56.27685546875,88.723388671875,61.86279296875,86.108642578125C67.56787109375,83.375,73.45068359375,81.23583984375,79.51220703125,79.690673828125C85.57373046875,78.1455078125,91.69482421875,77.373046875,97.875,77.373046875C111.30517578125,77.373046875,123.90380859375,79.8095703125,135.669921875,84.682373046875C147.55517578125,89.4365234375,157.89501953125,96.211181640625,166.68994140625,105.006103515625C175.60400390625,113.801025390625,182.6171875,124.43896484375,187.72705078125,136.91796875C192.837890625,149.279052734375,195.39306640625,163.006103515625,195.39306640625,178.10009765625C195.39306640625,193.7890625,192.837890625,207.93212890625,187.72705078125,220.531005859375C182.6171875,233.010009765625,175.60400390625,243.648193359375,166.68994140625,252.443115234375C157.89501953125,261.119140625,147.55517578125,267.775146484375,135.669921875,272.41015625C123.90380859375,277.045166015625,111.30517578125,279.363037109375,97.875,279.363037109375C93.59619140625,279.363037109375,89.3173828125,278.886962890625,85.0390625,277.93603515625C80.87890625,276.986083984375,76.71923828125,275.738037109375,72.5595703125,274.193115234375C68.5185546875,272.529052734375,64.4775390625,270.68603515625,60.4365234375,268.666015625C56.51416015625,266.64501953125,52.7109375,264.566162109375,49.02685546875,262.426025390625L49.02685546875,348ZM146.544921875,178.10009765625C146.544921875,170.01806640625,145.23779296875,162.76806640625,142.623046875,156.35009765625C140.126953125,149.93212890625,136.68017578125,144.525146484375,132.283203125,140.127197265625C127.88525390625,135.611083984375,122.71484375,132.1640625,116.77197265625,129.787109375C110.830078125,127.41015625,104.53125,126.22119140625,97.875,126.22119140625C91.21923828125,126.22119140625,84.919921875,127.41015625,78.9775390625,129.787109375C73.15380859375,132.1640625,68.04296875,135.611083984375,63.6455078125,140.127197265625C59.248046875,144.525146484375,55.74169921875,149.93212890625,53.126953125,156.35009765625C50.63134765625,162.76806640625,49.38330078125,170.01806640625,49.38330078125,178.10009765625C49.38330078125,185.826171875,50.63134765625,192.898193359375,53.126953125,199.316162109375C55.74169921875,205.734130859375,59.248046875,211.201171875,63.6455078125,215.717041015625C68.04296875,220.234130859375,73.15380859375,223.739990234375,78.9775390625,226.236083984375C84.919921875,228.732177734375,91.21923828125,229.97998046875,97.875,229.97998046875C104.53125,229.97998046875,110.830078125,228.732177734375,116.77197265625,226.236083984375C122.71484375,223.739990234375,127.88525390625,220.234130859375,132.283203125,215.717041015625C136.68017578125,211.201171875,140.126953125,205.734130859375,142.623046875,199.316162109375C145.23779296875,192.898193359375,146.544921875,185.826171875,146.544921875,178.10009765625Z" style="fill: rgb(250, 191, 90);"/></g></g><g id="shape-5e94b32d-d883-80ed-8007-438bbc65bec9"><g class="fills" id="fills-5e94b32d-d883-80ed-8007-438bbc65bec9"><path d="M417.96337890625,178.10009765625C417.96337890625,192.363037109375,415.408203125,205.674072265625,410.29736328125,218.03515625C405.18701171875,230.277099609375,398.234375,240.9140625,389.43896484375,249.947021484375C380.64404296875,258.861083984375,370.30419921875,265.93212890625,358.41796875,271.162109375C346.65234375,276.273193359375,333.994140625,278.828125,320.4453125,278.828125C307.01513671875,278.828125,294.35693359375,276.273193359375,282.47216796875,271.162109375C270.705078125,265.93212890625,260.365234375,258.861083984375,251.451171875,249.947021484375C242.65625,240.9140625,235.703125,230.277099609375,230.59326171875,218.03515625C225.48193359375,205.674072265625,222.92724609375,192.363037109375,222.92724609375,178.10009765625C222.92724609375,163.60009765625,225.48193359375,150.170166015625,230.59326171875,137.80908203125C235.703125,125.448974609375,242.65625,114.81103515625,251.451171875,105.898193359375C260.365234375,96.864990234375,270.705078125,89.79296875,282.47216796875,84.682373046875C294.35693359375,79.57177734375,307.01513671875,77.016357421875,320.4453125,77.016357421875C333.994140625,77.016357421875,346.65234375,79.452880859375,358.41796875,84.325927734375C370.30419921875,89.080078125,380.64404296875,95.9140625,389.43896484375,104.828125C398.234375,113.623046875,405.18701171875,124.260009765625,410.29736328125,136.739990234375C415.408203125,149.10009765625,417.96337890625,162.886962890625,417.96337890625,178.10009765625ZM368.93701171875,178.10009765625C368.93701171875,170.256103515625,367.62939453125,163.18408203125,365.01513671875,156.885009765625C362.51904296875,150.467041015625,359.072265625,145,354.67431640625,140.484130859375C350.27734375,135.84814453125,345.10693359375,132.342041015625,339.1640625,129.965087890625C333.34033203125,127.468994140625,327.10107421875,126.22119140625,320.4453125,126.22119140625C313.7890625,126.22119140625,307.490234375,127.468994140625,301.54736328125,129.965087890625C295.72412109375,132.342041015625,290.61328125,135.84814453125,286.21630859375,140.484130859375C281.93701171875,145,278.55029296875,150.467041015625,276.05419921875,156.885009765625C273.55810546875,163.18408203125,272.31005859375,170.256103515625,272.31005859375,178.10009765625C272.31005859375,185.468994140625,273.55810546875,192.302978515625,276.05419921875,198.60205078125C278.55029296875,204.902099609375,281.93701171875,210.369140625,286.21630859375,215.004150390625C290.61328125,219.63916015625,295.72412109375,223.323974609375,301.54736328125,226.05712890625C307.490234375,228.672119140625,313.7890625,229.97998046875,320.4453125,229.97998046875C327.10107421875,229.97998046875,333.34033203125,228.732177734375,339.1640625,226.236083984375C345.10693359375,223.739990234375,350.27734375,220.234130859375,354.67431640625,215.717041015625C359.072265625,211.201171875,362.51904296875,205.734130859375,365.01513671875,199.316162109375C367.62939453125,192.898193359375,368.93701171875,185.826171875,368.93701171875,178.10009765625Z" style="fill: rgb(250, 191, 90);"/></g></g><g id="shape-5e94b32d-d883-80ed-8007-438bbc65beca"><g class="fills" id="fills-5e94b32d-d883-80ed-8007-438bbc65beca"><path d="M504.86328125,275.261962890625L455.8369140625,275.261962890625L455.8369140625,8.379150390625L504.86328125,8.379150390625L504.86328125,275.261962890625Z" style="fill: rgb(250, 191, 90);"/></g></g><g id="shape-5e94b32d-d883-80ed-8007-438bbc65becb"><g class="fills" id="fills-5e94b32d-d883-80ed-8007-438bbc65becb"><path d="M602.10400390625,275.261962890625L553.0771484375,275.261962890625L553.0771484375,8.379150390625L602.10400390625,8.379150390625L602.10400390625,275.261962890625Z" style="fill: rgb(250, 191, 90);"/></g></g><g id="shape-5e94b32d-d883-80ed-8007-438bbc65becc"><g class="fills" id="fills-5e94b32d-d883-80ed-8007-438bbc65becc"><path d="M707.72314453125,32.44677734375C707.72314453125,36.963134765625,706.83203125,41.182373046875,705.04931640625,45.1044921875C703.38525390625,49.026611328125,701.06689453125,52.473388671875,698.09619140625,55.44482421875C695.125,58.297119140625,691.619140625,60.614990234375,687.578125,62.3974609375C683.6552734375,64.0615234375,679.43603515625,64.8935546875,674.919921875,64.8935546875C670.4033203125,64.8935546875,666.125,64.0615234375,662.083984375,62.3974609375C658.162109375,60.614990234375,654.71533203125,58.297119140625,651.744140625,55.44482421875C648.89111328125,52.473388671875,646.5732421875,49.026611328125,644.791015625,45.1044921875C643.126953125,41.182373046875,642.294921875,36.963134765625,642.294921875,32.44677734375C642.294921875,28.04931640625,643.126953125,23.889404296875,644.791015625,19.96728515625C646.5732421875,15.92626953125,648.89111328125,12.4794921875,651.744140625,9.627197265625C654.71533203125,6.65576171875,658.162109375,4.338134765625,662.083984375,2.67431640625C666.125,0.891357421875,670.4033203125,0,674.919921875,0C679.43603515625,0,683.6552734375,0.891357421875,687.578125,2.67431640625C691.619140625,4.338134765625,695.125,6.65576171875,698.09619140625,9.627197265625C701.06689453125,12.4794921875,703.38525390625,15.92626953125,705.04931640625,19.96728515625C706.83203125,23.889404296875,707.72314453125,28.04931640625,707.72314453125,32.44677734375ZM699.34423828125,275.261962890625L650.31689453125,275.261962890625L650.31689453125,84.325927734375L699.34423828125,84.325927734375L699.34423828125,275.261962890625Z" style="fill: rgb(250, 191, 90);"/></g></g><g id="shape-5e94b32d-d883-80ed-8007-438bbc65becd"><g class="fills" id="fills-5e94b32d-d883-80ed-8007-438bbc65becd"><path d="M852.38525390625,275.261962890625L741.13916015625,275.261962890625L741.13916015625,226.77001953125L852.38525390625,226.77001953125C855.712890625,226.77001953125,858.56591796875,225.58203125,860.943359375,223.205078125C863.3203125,220.828125,864.50830078125,217.97509765625,864.50830078125,214.648193359375C864.50830078125,211.201171875,863.3203125,208.943115234375,860.943359375,207.873046875C858.56591796875,206.802978515625,855.712890625,206.26806640625,852.38525390625,206.26806640625L801.75390625,206.26806640625C793.31591796875,206.26806640625,785.412109375,204.6640625,778.04296875,201.455078125C770.67431640625,198.24609375,764.25634765625,193.907958984375,758.7890625,188.441162109375C753.322265625,182.85498046875,748.98388671875,176.377197265625,745.77490234375,169.008056640625C742.68505859375,161.63916015625,741.13916015625,153.736083984375,741.13916015625,145.297119140625C741.13916015625,136.859130859375,742.68505859375,128.955078125,745.77490234375,121.586181640625C748.98388671875,114.217041015625,753.322265625,107.799072265625,758.7890625,102.33203125C764.25634765625,96.864990234375,770.67431640625,92.586181640625,778.04296875,89.49609375C785.412109375,86.286865234375,793.31591796875,84.682373046875,801.75390625,84.682373046875L900.34228515625,84.682373046875L900.34228515625,133.174072265625L801.75390625,133.174072265625C798.42626953125,133.174072265625,795.57421875,134.363037109375,793.197265625,136.739990234375C790.8203125,139.1171875,789.63134765625,141.968994140625,789.63134765625,145.297119140625C789.63134765625,148.744140625,790.8203125,151.715087890625,793.197265625,154.211181640625C795.57421875,156.588134765625,798.42626953125,157.777099609375,801.75390625,157.777099609375L852.38525390625,157.777099609375C860.705078125,157.777099609375,868.54931640625,159.203125,875.91796875,162.05517578125C883.287109375,164.7890625,889.705078125,168.652099609375,895.17236328125,173.64306640625C900.63916015625,178.635009765625,904.97705078125,184.636962890625,908.18603515625,191.650146484375C911.39599609375,198.662109375,913,206.328125,913,214.648193359375C913,223.086181640625,911.39599609375,230.989990234375,908.18603515625,238.359130859375C904.97705078125,245.609130859375,900.63916015625,252.027099609375,895.17236328125,257.613037109375C889.705078125,263.080078125,883.287109375,267.41796875,875.91796875,270.627197265625C868.54931640625,273.717041015625,860.705078125,275.261962890625,852.38525390625,275.261962890625Z" style="fill: rgb(250, 191, 90);"/></g></g></g></svg>