<svg width="1024" xmlns="http://www.w3.org/2000/svg" height="1024" id="screenshot-9bf8dc38-fa47-803d-8007-bf151e19ac65" viewBox="0 0 1024 1024" xmlns:xlink="http://www.w3.org/1999/xlink" fill="none" version="1.1"><g id="shape-9bf8dc38-fa47-803d-8007-bf151e19ac65"><defs><clipPath id="frame-clip-9bf8dc38-fa47-803d-8007-bf151e19ac65-render-1" class="frame-clip frame-clip-def"><rect rx="0" ry="0" x="0" y="0" width="1024" height="1024" transform="matrix(1.000000, 0.000000, 0.000000, 1.000000, 0.000000, 0.000000)"/></clipPath></defs><g class="frame-container-wrapper"><g class="frame-container-blur"><g class="frame-container-shadows"><g clip-path="url(#frame-clip-9bf8dc38-fa47-803d-8007-bf151e19ac65-render-1)" fill="none"><g class="fills" id="fills-9bf8dc38-fa47-803d-8007-bf151e19ac65"><rect rx="0" ry="0" x="0" y="0" width="1024" height="1024" transform="matrix(1.000000, 0.000000, 0.000000, 1.000000, 0.000000, 0.000000)" class="frame-background"/></g><g class="frame-children"><g id="shape-d0d0e09e-35ba-806c-8006-bffc5d17d119" rx="0" ry="0"><g id="shape-d0d0e09e-35ba-806c-8006-bffc5d17d11a" rx="0" ry="0"><g clip-path="url(#render-3-d0d0e09e-35ba-806c-8006-bffc5d17d11b-clip)"><g mask="url(#render-3-d0d0e09e-35ba-806c-8006-bffc5d17d11b-mask)"><defs><filter id="render-3-d0d0e09e-35ba-806c-8006-bffc5d17d11b-filter"><feFlood flood-color="white" result="FloodResult"/><feComposite in="FloodResult" in2="SourceGraphic" operator="in" result="comp"/></filter><clipPath id="render-3-d0d0e09e-35ba-806c-8006-bffc5d17d11b-clip" class="mask-clip-path"><polyline points="77,77 947,77 947,947 77,947"/></clipPath><mask width="870" maskUnits="userSpaceOnUse" height="870" class="mask-shape" x="77" id="render-3-d0d0e09e-35ba-806c-8006-bffc5d17d11b-mask" data-old-y="77" data-old-width="870" data-old-x="77" y="77" data-old-height="870"><g filter="url(#render-3-d0d0e09e-35ba-806c-8006-bffc5d17d11b-filter)"><g id="shape-d0d0e09e-35ba-806c-8006-bffc5d17d11b"><g class="fills" id="fills-d0d0e09e-35ba-806c-8006-bffc5d17d11b"><rect rx="200" ry="200" x="77" y="77" transform="matrix(1.000000, 0.000000, 0.000000, 1.000000, 0.000000, 0.000000)" width="870" height="870" style="fill: rgb(255, 255, 255); fill-opacity: 1;"/></g></g></g></mask></defs><g id="shape-d0d0e09e-35ba-806c-8006-bffcdaf385c0"><g class="fills" id="fills-d0d0e09e-35ba-806c-8006-bffcdaf385c0"><rect rx="200" ry="200" x="77" y="77" transform="matrix(1.000000, 0.000000, 0.000000, 1.000000, 0.000000, 0.000000)" width="870" height="870" style="fill: rgb(250, 191, 90); fill-opacity: 1;"/></g><g id="strokes-f46eca9e-b288-800f-8007-bf15975299cc-d0d0e09e-35ba-806c-8006-bffcdaf385c0" class="strokes"><g class="inner-stroke-shape" transform="matrix(1.000000, 0.000000, 0.000000, 1.000000, 0.000000, 0.000000)"><defs><clipPath id="inner-stroke-render-5-d0d0e09e-35ba-806c-8006-bffcdaf385c0-0"><use href="#stroke-shape-render-5-d0d0e09e-35ba-806c-8006-bffcdaf385c0-0"/></clipPath><rect rx="200" ry="200" x="77" y="77" width="870" height="870" id="stroke-shape-render-5-d0d0e09e-35ba-806c-8006-bffcdaf385c0-0" style="fill: none; stroke-width: 8; stroke: rgb(36, 38, 48); stroke-opacity: 1;"/></defs><use href="#stroke-shape-render-5-d0d0e09e-35ba-806c-8006-bffcdaf385c0-0" clip-path="url('#inner-stroke-render-5-d0d0e09e-35ba-806c-8006-bffcdaf385c0-0')"/></g></g></g><g id="shape-d0d0e09e-35ba-806c-8006-bffc5d17d11d" rx="0" ry="0"><g id="shape-d0d0e09e-35ba-806c-8006-bffc5d17d120"><g class="fills" id="fills-d0d0e09e-35ba-806c-8006-bffc5d17d120"><rect rx="0" ry="0" x="657.0000000000018" y="79.37704918032784" transform="matrix(1.000000, 0.000000, 0.000000, 1.000000, 0.000000, 0.000000)" width="289.99999999999727" height="867.6229508196722" style="fill: rgb(250, 191, 90);"/></g></g><g id="shape-d0d0e09e-35ba-806c-8006-bffc5d17d121"><g class="fills" id="fills-d0d0e09e-35ba-806c-8006-bffc5d17d121"><rect rx="0" ry="0" x="367" y="77" transform="matrix(1.000000, 0.000000, 0.000000, 1.000000, 0.000000, 0.000000)" width="290.0000000000009" height="285.2459016393442" style="fill: rgb(250, 191, 90);"/></g></g><g id="shape-d0d0e09e-35ba-806c-8006-bffc5d17d122"><g class="fills" id="fills-d0d0e09e-35ba-806c-8006-bffc5d17d122"><rect rx="0" ry="0" x="77" y="79.37704918032784" transform="matrix(1.000000, 0.000000, 0.000000, 1.000000, 0.000000, 0.000000)" width="290" height="867.6229508196722" style="fill: rgb(250, 191, 90);"/></g></g></g><g id="shape-d0d0e09e-35ba-806c-8006-bffc5d17d11e" rx="0" ry="0"><g id="shape-d0d0e09e-35ba-806c-8006-bffc5d17d123"><g class="fills" id="fills-d0d0e09e-35ba-806c-8006-bffc5d17d123"><rect rx="0" ry="0" x="367" y="685.5245901639346" transform="matrix(1.000000, 0.000000, 0.000000, 1.000000, 0.000000, 0.000000)" width="290.00000000000273" height="261.47540983606564" style="fill: rgb(250, 191, 90);"/></g></g></g><g id="shape-d0d0e09e-35ba-806c-8006-bffc5d17d11f"><g class="fills" id="fills-d0d0e09e-35ba-806c-8006-bffc5d17d11f"><path d="M383.515625,947L254.09033203125,947L254.09033203125,252.2064208984375L285.15234375,252.2064208984375L336.45166015625,312.8077392578125C348.0615234375,301.84600830078125,360.7685546875,291.5108642578125,374.57373046875,281.80218505859375C388.37939453125,272.0933837890625,402.6552734375,263.7943115234375,417.40234375,256.9041748046875C432.46240234375,249.70111083984375,447.99365234375,244.06390380859375,463.9951171875,239.992431640625C479.99658203125,235.92108154296875,496.15576171875,233.88525390625,512.47119140625,233.88525390625C547.92529296875,233.88525390625,581.185546875,240.30548095703125,612.24658203125,253.1461181640625C643.6220703125,265.67340087890625,670.91845703125,283.52484130859375,694.13671875,306.69970703125C717.66845703125,329.875,736.1826171875,357.90655517578125,749.67236328125,390.78936767578125C763.1650390625,423.361083984375,769.90966796875,459.53240966796875,769.90966796875,499.3057861328125C769.90966796875,540.64697265625,763.1650390625,577.9144287109375,749.67236328125,611.1134033203125C736.1826171875,643.99609375,717.66845703125,672.0277099609375,694.13671875,695.202880859375C670.91845703125,718.064697265625,643.6220703125,735.603515625,612.24658203125,747.81689453125C581.185546875,760.0303955078125,547.92529296875,766.138427734375,512.47119140625,766.138427734375C501.17529296875,766.138427734375,489.8798828125,764.884033203125,478.58544921875,762.378173828125C467.603515625,759.8748779296875,456.62158203125,756.5863037109375,445.64013671875,752.5152587890625C434.97216796875,748.13037109375,424.3046875,743.274169921875,413.63671875,737.9512939453125C403.28271484375,732.6258544921875,393.24267578125,727.1475830078125,383.515625,721.508544921875L383.515625,947L383.515625,947M640.9560546875,499.3057861328125C640.9560546875,478.00933837890625,637.50537109375,458.90521240234375,630.60205078125,441.99346923828125C624.01220703125,425.08172607421875,614.9130859375,410.83416748046875,603.30517578125,399.24517822265625C591.69482421875,387.3453369140625,578.046875,378.26226806640625,562.357421875,371.998779296875C546.67138671875,365.7352294921875,530.04248046875,362.6021728515625,512.47119140625,362.6021728515625C494.900390625,362.6021728515625,478.271484375,365.7352294921875,462.5830078125,371.998779296875C447.208984375,378.26226806640625,433.7177734375,387.3453369140625,422.10791015625,399.24517822265625C410.49951171875,410.83416748046875,401.2431640625,425.08172607421875,394.34033203125,441.99346923828125C387.75146484375,458.90521240234375,384.45703125,478.00933837890625,384.45703125,499.3057861328125C384.45703125,519.6640625,387.75146484375,538.2991943359375,394.34033203125,555.2108154296875C401.2431640625,572.12255859375,410.49951171875,586.5283203125,422.10791015625,598.4283447265625C433.7177734375,610.3306884765625,447.208984375,619.5692138671875,462.5830078125,626.146240234375C478.271484375,632.723388671875,494.900390625,636.011962890625,512.47119140625,636.011962890625C530.04248046875,636.011962890625,546.67138671875,632.723388671875,562.357421875,626.146240234375C578.046875,619.5692138671875,591.69482421875,610.3306884765625,603.30517578125,598.4283447265625C614.9130859375,586.5283203125,624.01220703125,572.12255859375,630.60205078125,555.2108154296875C637.50537109375,538.2991943359375,640.9560546875,519.6640625,640.9560546875,499.3057861328125L640.9560546875,499.3057861328125" style="fill: rgb(36, 38, 48);"/></g></g><g id="shape-d0d0e09e-35ba-806c-8006-bffc5d17d11c"><g class="fills" id="fills-d0d0e09e-35ba-806c-8006-bffc5d17d11c"><rect rx="200" ry="200" x="77" y="77" transform="matrix(1.000000, 0.000000, 0.000000, 1.000000, 0.000000, 0.000000)" width="870" height="870"/></g><g id="strokes-f46eca9e-b288-800f-8007-bf1597584f01-d0d0e09e-35ba-806c-8006-bffc5d17d11c" class="strokes"><g class="stroke-shape"><rect rx="200" ry="200" x="77" y="77" transform="matrix(1.000000, 0.000000, 0.000000, 1.000000, 0.000000, 0.000000)" width="870" height="870" style="fill: none; stroke-width: 46; stroke: rgb(36, 38, 48); stroke-opacity: 1;"/></g></g></g></g></g></g></g></g></g></g></g></g></g></svg>